<svg width="32" height="32" viewBox="0 0 32 32" xmlns="http://www.w3.org/2000/svg">
  <!-- Background circle with gradient -->
  <defs>
    <linearGradient id="bgGradient" x1="0%" y1="0%" x2="100%" y2="100%">
      <stop offset="0%" style="stop-color:#667eea;stop-opacity:1" />
      <stop offset="100%" style="stop-color:#764ba2;stop-opacity:1" />
    </linearGradient>
    <linearGradient id="leafGradient" x1="0%" y1="0%" x2="100%" y2="100%">
      <stop offset="0%" style="stop-color:#4ade80;stop-opacity:1" />
      <stop offset="100%" style="stop-color:#22c55e;stop-opacity:1" />
    </linearGradient>
    <filter id="glow">
      <feGaussianBlur stdDeviation="1" result="coloredBlur"/>
      <feMerge> 
        <feMergeNode in="coloredBlur"/>
        <feMergeNode in="SourceGraphic"/>
      </feMerge>
    </filter>
  </defs>
  
  <!-- Background -->
  <circle cx="16" cy="16" r="15" fill="url(#bgGradient)" stroke="rgba(255,255,255,0.3)" stroke-width="1"/>
  
  <!-- Leaf shape -->
  <path d="M16 6 C20 8, 22 12, 22 16 C22 20, 20 24, 16 26 C12 24, 10 20, 10 16 C10 12, 12 8, 16 6 Z" 
        fill="url(#leafGradient)" 
        filter="url(#glow)"/>
  
  <!-- Central vein -->
  <line x1="16" y1="8" x2="16" y2="24" stroke="rgba(255,255,255,0.7)" stroke-width="1.5" stroke-linecap="round"/>
  
  <!-- Side veins -->
  <path d="M16 12 L18 14" stroke="rgba(255,255,255,0.5)" stroke-width="1" stroke-linecap="round"/>
  <path d="M16 12 L14 14" stroke="rgba(255,255,255,0.5)" stroke-width="1" stroke-linecap="round"/>
  <path d="M16 16 L19 18" stroke="rgba(255,255,255,0.5)" stroke-width="1" stroke-linecap="round"/>
  <path d="M16 16 L13 18" stroke="rgba(255,255,255,0.5)" stroke-width="1" stroke-linecap="round"/>
  
  <!-- Pollen particles -->
  <circle cx="22" cy="10" r="2" fill="#ffd700" opacity="0.8"/>
  <circle cx="25" cy="15" r="1.5" fill="#ffd700" opacity="0.6"/>
  <circle cx="8" cy="12" r="1.5" fill="#ffd700" opacity="0.7"/>
  <circle cx="6" cy="18" r="2" fill="#ffd700" opacity="0.5"/>
  <circle cx="20" cy="25" r="1" fill="#ffd700" opacity="0.6"/>
</svg>